<?xml version="1.0" standalone="no"?>
<!DOCTYPE svg PUBLIC "-//W3C//DTD SVG 20010904//EN"
 "http://www.w3.org/TR/2001/REC-SVG-20010904/DTD/svg10.dtd">
<svg version="1.0" xmlns="http://www.w3.org/2000/svg"
 width="200.000000pt" height="200.000000pt" viewBox="0 0 200.000000 200.000000"
 preserveAspectRatio="xMidYMid meet">
<metadata>
Created by potrace 1.11, written by Peter Selinger 2001-2013
</metadata>
<g transform="translate(0.000000,200.000000) scale(0.100000,-0.100000)"
fill="#000000" stroke="none">
<path d="M0 1000 l0 -1000 288 0 289 0 11 39 c7 21 12 47 12 57 0 15 2 16 9 5
5 -8 7 -20 4 -28 -3 -7 -2 -21 2 -30 13 -30 24 44 13 84 -13 46 -3 89 17 73
11 -9 12 -6 3 24 -11 34 -3 79 10 61 4 -6 16 -17 26 -25 18 -13 19 -13 11 0
-4 8 -15 23 -23 32 -10 12 -12 28 -7 55 6 29 9 34 14 20 6 -17 8 -18 21 -3 7
10 19 15 25 12 8 -3 11 5 9 22 -12 114 -15 250 -5 256 7 5 11 -2 11 -18 0 -40
40 -136 56 -136 8 0 25 -17 37 -38 l22 -37 3 53 c3 48 5 51 23 42 14 -8 19 -7
19 2 0 19 -38 78 -50 78 -6 0 -8 4 -5 10 3 6 -1 7 -10 4 -20 -8 -45 51 -44
103 1 27 3 32 8 18 13 -38 34 -75 43 -75 5 0 6 -5 3 -10 -3 -6 -2 -10 2 -10 5
0 21 -12 36 -26 41 -38 82 -46 138 -30 75 23 103 41 160 108 30 35 56 65 59
68 3 3 20 28 37 55 42 68 47 87 64 224 5 47 14 90 20 97 5 7 12 22 14 35 3 12
10 27 16 33 9 8 10 8 5 -1 -4 -7 -3 -13 3 -13 5 0 14 8 20 18 5 9 11 15 13 12
5 -7 88 32 88 42 0 4 8 8 18 8 9 0 26 7 36 15 10 8 23 12 27 9 4 -2 37 2 71
10 63 15 148 11 148 -5 0 -5 13 -9 29 -9 30 0 65 -25 56 -40 -3 -5 -1 -10 4
-12 5 -1 11 -12 13 -23 1 -11 7 -23 12 -26 15 -12 38 -155 27 -174 -9 -16 -8
-125 1 -125 5 0 2 -7 -6 -16 -9 -8 -16 -24 -16 -35 0 -10 -5 -19 -11 -19 -6 0
-8 -9 -4 -21 5 -15 4 -19 -4 -15 -6 4 -11 0 -11 -9 0 -9 -5 -26 -12 -38 -7
-12 -13 -26 -13 -32 -2 -22 -25 -65 -34 -65 -6 0 -8 -7 -5 -15 4 -8 -1 -17
-10 -21 -9 -3 -16 -10 -16 -16 0 -13 -26 -38 -33 -32 -3 3 -3 -4 0 -15 l5 -21
-43 18 c-24 10 -88 31 -142 46 -55 15 -127 41 -160 57 -34 16 -67 29 -73 29
-7 0 -35 25 -64 56 -45 50 -50 53 -43 28 11 -41 9 -160 -4 -289 -7 -60 -15
-162 -18 -225 -3 -63 -8 -143 -11 -178 l-6 -62 386 0 386 0 0 1000 0 1000
-1000 0 -1000 0 0 -1000z m1180 545 c20 0 34 -5 33 -11 -1 -6 9 -17 22 -24 34
-18 50 -63 61 -175 2 -27 7 -56 9 -63 3 -8 0 -10 -8 -6 -6 4 -4 -2 7 -14 10
-12 19 -36 19 -54 1 -76 -13 -199 -27 -233 -9 -20 -15 -39 -15 -43 1 -4 1 -18
0 -32 -1 -20 -3 -22 -11 -10 -10 15 -11 12 -14 -22 -1 -7 -5 -18 -11 -24 -7
-9 -12 -8 -17 5 -6 14 -7 13 -7 -3 -1 -18 -3 -18 -23 4 -12 12 -22 30 -23 39
-4 35 -29 70 -56 80 -16 5 -29 16 -29 24 0 18 -27 30 -35 17 -4 -6 2 -11 12
-11 10 -1 5 -4 -12 -8 -16 -4 -29 -12 -28 -19 2 -6 -4 -9 -12 -5 -12 4 -13 9
-4 19 9 11 8 14 -3 14 -23 0 -68 24 -68 36 0 7 8 15 17 18 13 5 14 9 4 19 -14
14 -28 -3 -38 -47 -4 -18 -18 -36 -40 -48 -18 -11 -36 -31 -39 -44 -3 -13 -10
-24 -15 -24 -5 0 -9 -9 -9 -20 0 -13 -7 -20 -18 -20 -10 0 -22 -3 -27 -8 -6
-4 -9 -5 -8 -3 2 2 -4 9 -13 16 -9 6 -18 32 -21 58 -4 31 -9 44 -17 40 -8 -5
-8 -3 0 8 13 16 7 269 -6 269 -5 0 -7 8 -5 18 2 9 4 37 4 61 1 40 3 43 25 39
20 -4 25 0 30 24 7 35 28 38 22 2 -5 -25 -5 -26 14 -9 11 10 20 14 20 9 0 -5
4 -4 8 2 4 6 22 21 40 32 22 13 30 22 22 27 -7 4 -8 10 -3 14 5 3 16 19 26 34
14 22 23 26 40 21 19 -6 20 -5 10 8 -11 13 -6 15 33 13 26 -1 67 4 93 11 25 6
48 9 51 5 3 -3 21 -6 40 -6z m227 -317 c-3 -8 -6 -5 -6 6 -1 11 2 17 5 13 3
-3 4 -12 1 -19z m-700 -168 c-2 -36 -5 -37 -16 -7 -5 14 -4 25 3 29 16 11 15
11 13 -22z m308 -140 c3 -5 2 -10 -4 -10 -5 0 -13 5 -16 10 -3 6 -2 10 4 10 5
0 13 -4 16 -10z m-120 -20 c3 -5 1 -10 -4 -10 -6 0 -11 5 -11 10 0 6 2 10 4
10 3 0 8 -4 11 -10z m85 -11 c0 10 10 12 43 7 23 -4 53 -7 66 -7 12 1 27 -2
32 -5 13 -8 -19 -64 -36 -64 -8 0 -15 -4 -15 -10 0 -19 -28 2 -34 26 -6 24
-30 32 -41 14 -4 -6 -11 -8 -16 -4 -5 3 -7 10 -4 15 4 5 1 9 -4 9 -14 0 -14
-6 -1 -30 13 -24 -3 -35 -20 -15 -7 8 -10 15 -6 15 3 0 1 11 -4 24 -7 20 -6
25 8 28 9 2 20 -1 24 -7 5 -6 8 -5 8 4z m861 -387 c-7 -2 -18 1 -23 6 -8 8 -4
9 13 5 13 -4 18 -8 10 -11z"/>
<path d="M824 1259 c-11 -18 8 -29 47 -29 24 0 38 -4 34 -10 -3 -5 -19 -10
-34 -10 -16 0 -39 -8 -52 -19 l-23 -19 52 3 c28 1 57 7 64 13 9 7 18 6 31 -3
15 -11 17 -17 7 -35 -11 -20 -10 -21 9 -11 11 6 23 16 26 22 9 14 -3 59 -16
59 -6 0 -18 9 -27 19 -18 20 -108 35 -118 20z"/>
<path d="M1130 1244 c0 -14 9 -16 65 -12 36 3 62 2 59 -3 -3 -5 2 -9 10 -9 22
0 28 16 11 30 -13 11 -21 10 -41 -1 -20 -10 -29 -11 -44 -1 -28 17 -60 15 -60
-4z"/>
<path d="M1097 1194 c-3 -17 0 -24 12 -25 33 -1 97 -9 120 -14 23 -6 24 -5 9
16 -15 23 -46 36 -105 42 -26 3 -32 0 -36 -19z m43 -14 c0 -5 -2 -10 -4 -10
-3 0 -8 5 -11 10 -3 6 -1 10 4 10 6 0 11 -4 11 -10z"/>
<path d="M1385 1160 c-4 -12 -5 -24 -2 -27 3 -2 8 5 12 17 4 12 5 24 2 27 -3
2 -8 -5 -12 -17z"/>
<path d="M1241 710 c-2 -50 -43 -133 -107 -217 -58 -75 -128 -143 -149 -143
-7 0 -15 -18 -19 -40 -3 -22 -11 -40 -16 -40 -6 0 -10 -7 -10 -15 0 -21 10
-18 50 16 31 26 35 27 41 12 6 -17 7 -16 13 2 12 34 47 97 111 195 64 100 99
189 92 237 -4 25 -4 24 -6 -7z"/>
<path d="M770 408 c5 -18 14 -49 21 -68 6 -19 13 -41 15 -47 4 -17 24 -17 24
0 0 7 -9 30 -20 52 -11 21 -19 44 -19 50 3 28 -2 45 -15 45 -11 0 -12 -8 -6
-32z"/>
<path d="M1110 375 c-6 -15 -15 -36 -21 -48 -6 -12 2 -7 19 13 34 38 37 46 22
55 -6 3 -15 -6 -20 -20z"/>
<path d="M859 153 c-13 -16 -12 -17 4 -4 16 13 21 21 13 21 -2 0 -10 -8 -17
-17z"/>
<path d="M825 55 c-3 -26 -4 -49 -2 -52 3 -3 9 16 12 42 4 25 5 48 2 51 -2 3
-8 -16 -12 -41z"/>
</g>
</svg>
